<svg xmlns="http://www.w3.org/2000/svg" fill="none" viewBox="0 0 377 100">
  <path fill="#EDF5FA" d="M57.551 13.461H7.673v50H0V5.77h65.225v57.693H57.55v-50Z" />
  <path fill="#C5DDEE" fill-rule="evenodd"
    d="M32.692 19.23a5.77 5.77 0 1 0 0-11.538 5.77 5.77 0 0 0 0 11.539Zm13.462-5.769c0 6.099-4.055 11.25-9.616 12.905v6.326H50v7.693H36.538V81.49l.071-.016c2.734-.612 6.043-.572 8.5-.541.487.005.94.011 1.349.011 3.26 0 6.276-.21 8.412-1.157.982-.434 1.621-.961 2.036-1.575.406-.6.786-1.566.786-3.212v-6.73H50v-7.693h15.385V75c0 2.9-.695 5.43-2.105 7.518-1.4 2.074-3.317 3.427-5.295 4.303-3.785 1.676-8.31 1.815-11.527 1.815-.613 0-1.21-.005-1.791-.01h-.002c-2.449-.022-4.606-.042-6.375.355-1.021.228-1.437.51-1.57.64l-.004.002c-.027.022-.178.142-.178.762v2.884h-7.692v-2.884c0-.62-.15-.74-.177-.762l-.004-.002c-.134-.13-.549-.412-1.57-.64-1.77-.397-3.926-.377-6.375-.355h-.002c-.581.005-1.178.01-1.79.01-3.218 0-7.743-.139-11.528-1.815-1.979-.876-3.894-2.229-5.296-4.303C.694 80.43 0 77.9 0 75V60.577h15.385v7.692H7.692V75c0 1.646.38 2.611.787 3.212.414.614 1.054 1.14 2.036 1.575 2.136.947 5.152 1.157 8.412 1.157.409 0 .862-.005 1.349-.011 2.457-.03 5.765-.071 8.5.541l.07.016V40.385H15.385v-7.693h13.461v-6.326c-5.56-1.655-9.615-6.806-9.615-12.905C19.23 6.027 25.258 0 32.692 0c7.435 0 13.462 6.027 13.462 13.461Z"
    clip-rule="evenodd" />
  <path fill="#C5DDEE"
    d="M89.864 63.462V38.287h6.817v9.834h9.025v-9.834h6.818v25.175h-6.818v-9.834h-9.025v9.834h-6.817Zm32.421 0h-7.357l8.289-25.175h9.319l8.29 25.175h-7.358l-5.493-18.242h-.196l-5.494 18.242Zm-1.373-9.933h13.832v5.114h-13.832v-5.114Zm29.641-15.242 4.12 7.326h.196l4.169-7.326h7.603l-7.505 12.587 7.799 12.587h-7.799l-4.267-7.473h-.196l-4.267 7.474h-7.75l7.7-12.588-7.455-12.587h7.652Zm41.67 12.587c0 2.803-.544 5.167-1.631 7.093-1.087 1.917-2.555 3.372-4.402 4.364-1.848.983-3.908 1.475-6.18 1.475-2.289 0-4.357-.496-6.205-1.488-1.839-1-3.303-2.458-4.39-4.376-1.079-1.926-1.618-4.282-1.618-7.068 0-2.803.539-5.163 1.618-7.08 1.087-1.926 2.551-3.38 4.39-4.364 1.848-.992 3.916-1.487 6.205-1.487 2.272 0 4.332.495 6.18 1.487 1.847.983 3.315 2.438 4.402 4.364 1.087 1.917 1.631 4.277 1.631 7.08Zm-7.014 0c0-1.508-.2-2.778-.601-3.81-.392-1.041-.977-1.828-1.753-2.36-.769-.541-1.717-.812-2.845-.812-1.128 0-2.081.27-2.857.811-.769.533-1.353 1.32-1.754 2.36-.392 1.033-.588 2.303-.588 3.811s.196 2.782.588 3.823c.401 1.033.985 1.82 1.754 2.36.776.533 1.729.8 2.857.8 1.128 0 2.076-.267 2.845-.8.776-.54 1.361-1.327 1.753-2.36.401-1.04.601-2.315.601-3.823Zm9.335 18.636V58.2h1.765c.589-.36 1.12-.868 1.594-1.524.483-.656.892-1.594 1.227-2.815.343-1.22.596-2.856.76-4.904l.834-10.67h17.756V58.2h2.648v11.31h-6.572v-6.05h-13.44v6.048h-6.572Zm9.564-11.31h7.799V43.794h-5.052l-.392 5.163c-.115 1.54-.291 2.888-.528 4.044-.229 1.147-.502 2.147-.821 2.999a14.268 14.268 0 0 1-1.006 2.2Zm34.801 5.262-7.701-10.179h-.957v10.178h-6.817V38.288h6.817v9.49h.883l7.211-9.49h8.583l-9.564 12.095 10.104 13.08h-8.559Zm16.912 0h-7.357l8.289-25.175h9.32l8.289 25.175h-7.357l-5.494-18.242h-.196l-5.494 18.242Zm-1.373-9.933h13.832v5.114h-13.832v-5.114Zm29.261 9.933v-4.917l9.368-7.77a20.724 20.724 0 0 0 1.594-1.45 5.49 5.49 0 0 0 1.03-1.413c.246-.484.368-1.02.368-1.61 0-.648-.139-1.201-.417-1.66a2.696 2.696 0 0 0-1.128-1.057c-.482-.254-1.038-.381-1.667-.381-.63 0-1.186.127-1.668.38a2.65 2.65 0 0 0-1.104 1.12c-.261.491-.392 1.09-.392 1.794h-6.475c0-1.77.397-3.294 1.19-4.573.793-1.278 1.913-2.262 3.36-2.95 1.447-.688 3.143-1.032 5.089-1.032 2.011 0 3.752.323 5.223.97 1.48.64 2.62 1.541 3.421 2.705.81 1.164 1.214 2.528 1.214 4.093 0 .967-.2 1.93-.6 2.889-.401.95-1.12 2.004-2.159 3.16-1.038 1.155-2.513 2.531-4.426 4.13l-2.355 1.966v.148h9.81v5.458h-19.276Zm33.261.688c-2.28-.008-4.251-.537-5.91-1.586-1.66-1.049-2.939-2.56-3.838-4.536-.899-1.975-1.345-4.343-1.337-7.105.008-2.77.458-5.122 1.349-7.056.899-1.934 2.175-3.405 3.826-4.412 1.659-1.008 3.63-1.512 5.91-1.512 2.281 0 4.251.508 5.911 1.524 1.659 1.008 2.939 2.479 3.838 4.413.899 1.934 1.345 4.282 1.336 7.043 0 2.778-.449 5.155-1.348 7.13-.9 1.975-2.179 3.487-3.839 4.536-1.651 1.04-3.617 1.56-5.898 1.56Zm0-5.556c1.178 0 2.142-.615 2.894-1.844.76-1.238 1.137-3.18 1.128-5.827 0-1.729-.171-3.142-.515-4.24-.343-1.099-.817-1.91-1.422-2.434-.605-.533-1.3-.8-2.085-.8-1.177 0-2.137.599-2.881 1.795-.744 1.197-1.124 3.09-1.141 5.68-.008 1.761.16 3.212.503 4.35.343 1.132.818 1.968 1.422 2.508.614.541 1.313.812 2.097.812Zm24.096 5.212c-1.979 0-3.736-.34-5.273-1.02-1.529-.689-2.73-1.636-3.605-2.84-.875-1.205-1.316-2.59-1.324-4.155h6.866a2.2 2.2 0 0 0 .442 1.303c.294.377.695.672 1.202.885.506.213 1.087.32 1.741.32.629 0 1.185-.11 1.667-.332a2.74 2.74 0 0 0 1.129-.947c.269-.401.4-.86.392-1.376a2.033 2.033 0 0 0-.466-1.353c-.311-.393-.748-.7-1.312-.921-.564-.222-1.214-.332-1.95-.332h-2.55v-4.72h2.55c.679 0 1.276-.111 1.791-.333.523-.22.927-.528 1.213-.922.295-.393.438-.844.43-1.352a2.268 2.268 0 0 0-.356-1.303 2.484 2.484 0 0 0-1.03-.885c-.433-.213-.936-.32-1.508-.32-.622 0-1.177.111-1.668.332a2.781 2.781 0 0 0-1.14.923 2.351 2.351 0 0 0-.429 1.352h-6.524c.008-1.541.429-2.901 1.263-4.081.842-1.18 1.995-2.106 3.458-2.779 1.463-.672 3.143-1.008 5.04-1.008 1.855 0 3.495.316 4.917.947 1.431.631 2.546 1.5 3.348 2.606.809 1.098 1.209 2.356 1.201 3.774.017 1.41-.466 2.565-1.447 3.466-.973.902-2.207 1.434-3.703 1.598v.197c2.027.221 3.552.844 4.574 1.868 1.022 1.016 1.525 2.295 1.508 3.836.008 1.475-.433 2.782-1.324 3.92-.883 1.14-2.113 2.033-3.691 2.68-1.57.648-3.38.972-5.432.972Zm24.429.344c-2.28-.008-4.251-.537-5.91-1.586-1.66-1.049-2.939-2.56-3.838-4.536-.899-1.975-1.345-4.343-1.337-7.105.008-2.77.458-5.122 1.349-7.056.899-1.934 2.175-3.405 3.826-4.412 1.659-1.008 3.63-1.512 5.91-1.512 2.281 0 4.251.508 5.911 1.524 1.659 1.008 2.939 2.479 3.838 4.413.899 1.934 1.345 4.282 1.336 7.043 0 2.778-.449 5.155-1.348 7.13-.9 1.975-2.179 3.487-3.839 4.536-1.651 1.04-3.617 1.56-5.898 1.56Zm0-5.556c1.177 0 2.142-.615 2.894-1.844.76-1.238 1.136-3.18 1.128-5.827 0-1.729-.171-3.142-.515-4.24-.343-1.099-.817-1.91-1.422-2.434-.605-.533-1.3-.8-2.085-.8-1.177 0-2.137.599-2.881 1.795-.744 1.197-1.124 3.09-1.141 5.68-.008 1.761.16 3.212.503 4.35.343 1.132.817 1.968 1.422 2.508.614.541 1.313.812 2.097.812Z" />
</svg>