<svg xmlns="http://www.w3.org/2000/svg" fill="none" viewBox="0 0 197 52">
  <path fill="#CFE3F1" d="M30 7H4v26H0V3h34v30h-4V7z" />
  <path fill="#028AF3" fill-rule="evenodd"
    d="M17 10a3 3 0 100-6 3 3 0 000 6zm7-3a7.003 7.003 0 01-5 6.71V17h7v4h-7v21.375l.037-.008c1.422-.319 3.142-.298 4.42-.282.253.003.488.006.7.006 1.696 0 3.265-.11 4.375-.602.51-.226.843-.5 1.059-.819.211-.312.409-.814.409-1.67v-3.5h-4v-4h8V39c0 1.508-.361 2.824-1.094 3.91-.729 1.078-1.725 1.781-2.754 2.237-1.968.872-4.321.944-5.994.944-.319 0-.63-.003-.931-.006h-.001c-1.274-.011-2.395-.021-3.315.185-.531.119-.747.265-.817.333l-.002.001c-.014.011-.092.074-.092.396v1.5h-4V47c0-.322-.078-.385-.092-.396l-.002-.001c-.07-.068-.286-.214-.817-.333-.92-.206-2.041-.196-3.315-.185-.303.003-.613.006-.932.006-1.673 0-4.026-.072-5.994-.944-1.029-.456-2.025-1.16-2.754-2.238C.361 41.824 0 40.508 0 39v-7.5h8v4H4V39c0 .856.198 1.358.409 1.67.215.32.548.593 1.059.82 1.11.491 2.679.6 4.374.6.213 0 .448-.002.701-.005 1.278-.016 2.998-.037 4.42.282l.037.008V21H8v-4h7v-3.29A7 7 0 1124 7z"
    clip-rule="evenodd" />
  <path fill="#028AF3"
    d="M46.844 33V19.91h3.554v5.113h4.704v-5.114h3.554V33h-3.554v-5.114h-4.704V33h-3.554zm16.9 0H59.91l4.321-13.09h4.858L73.41 33h-3.835l-2.864-9.486h-.102L63.744 33zm-.716-5.165h7.21v2.66h-7.21v-2.66zM78.48 19.91l2.147 3.809h.103l2.173-3.81h3.963l-3.912 6.546L87.019 33h-4.065l-2.224-3.886h-.103L78.403 33h-4.04l4.014-6.546-3.886-6.545h3.989zm21.721 6.544c0 1.458-.283 2.687-.85 3.689-.567.997-1.332 1.753-2.294 2.269-.964.511-2.038.767-3.222.767-1.193 0-2.271-.258-3.234-.773-.96-.52-1.722-1.279-2.289-2.276-.562-1.002-.844-2.227-.844-3.675 0-1.458.282-2.685.844-3.682.567-1.002 1.33-1.758 2.288-2.27.964-.515 2.042-.773 3.235-.773 1.184 0 2.258.258 3.222.773.962.512 1.727 1.268 2.294 2.27.567.997.85 2.224.85 3.681zm-3.656 0c0-.784-.104-1.444-.313-1.981-.205-.541-.51-.95-.914-1.227-.4-.281-.895-.422-1.483-.422-.588 0-1.085.14-1.49.422-.4.277-.705.686-.913 1.227-.205.537-.307 1.197-.307 1.982 0 .784.102 1.446.306 1.988.21.536.514.945.915 1.227.404.277.9.415 1.489.415.588 0 1.082-.138 1.483-.415.405-.282.71-.69.914-1.228.209-.54.313-1.203.313-1.988zm4.866 9.691v-5.88h.92c.307-.188.584-.453.831-.793.252-.341.465-.83.64-1.464.179-.635.311-1.485.396-2.55l.435-5.549h9.255v10.355h1.381v5.88h-3.426V33h-7.006v3.145h-3.426zm4.986-5.88h4.065v-7.492h-2.633l-.205 2.684a16.71 16.71 0 01-.275 2.103 10.126 10.126 0 01-.428 1.56c-.162.439-.337.82-.524 1.144zM124.537 33l-4.014-5.293h-.498V33h-3.554V19.91h3.554v4.934h.46l3.758-4.935h4.475l-4.986 6.29L128.999 33h-4.462zm8.817 0h-3.836l4.321-13.09h4.858L143.018 33h-3.835l-2.863-9.486h-.103L133.354 33zm-.716-5.165h7.21v2.66h-7.21v-2.66zM147.891 33v-2.557l4.883-4.04c.324-.268.601-.52.831-.754.235-.239.414-.483.537-.735a1.82 1.82 0 00.192-.837c0-.337-.072-.625-.217-.863a1.413 1.413 0 00-.588-.55 1.845 1.845 0 00-.87-.198 1.84 1.84 0 00-.869.198 1.375 1.375 0 00-.575.582c-.137.255-.205.567-.205.933h-3.375c0-.92.207-1.713.62-2.378.414-.665.997-1.176 1.752-1.534.754-.358 1.638-.537 2.652-.537 1.049 0 1.956.168 2.723.505.772.332 1.366.801 1.784 1.406.422.605.632 1.315.632 2.129 0 .503-.104 1.003-.313 1.502-.209.494-.584 1.042-1.125 1.643-.541.6-1.31 1.317-2.307 2.148l-1.228 1.022v.077h5.114V33h-10.048zm17.338.358c-1.189-.004-2.216-.28-3.081-.825-.865-.545-1.532-1.331-2-2.358-.469-1.027-.701-2.259-.697-3.695.004-1.44.238-2.663.703-3.669.469-1.006 1.133-1.77 1.994-2.295.865-.524 1.892-.786 3.081-.786s2.216.264 3.081.793c.865.524 1.532 1.289 2.001 2.294.469 1.006.701 2.227.697 3.663 0 1.445-.235 2.68-.703 3.707-.469 1.027-1.136 1.814-2.001 2.36-.861.54-1.886.81-3.075.81zm0-2.89c.614 0 1.117-.319 1.509-.958.396-.644.592-1.654.588-3.03 0-.899-.09-1.634-.269-2.205-.179-.571-.426-.993-.741-1.266a1.599 1.599 0 00-1.087-.415c-.613 0-1.114.31-1.502.933-.388.622-.586 1.607-.594 2.953-.005.916.083 1.67.262 2.263.179.588.426 1.023.741 1.304.32.281.684.422 1.093.422zm12.561 2.711c-1.032 0-1.948-.177-2.749-.53-.797-.358-1.423-.85-1.879-1.477-.456-.627-.686-1.347-.691-2.16h3.58c.004.25.081.477.23.677.153.196.362.35.626.46.265.11.567.166.908.166.328 0 .618-.057.869-.172a1.43 1.43 0 00.589-.492c.14-.21.208-.448.204-.716a1.058 1.058 0 00-.243-.703 1.585 1.585 0 00-.684-.48 2.777 2.777 0 00-1.016-.172h-1.33v-2.455h1.33c.354 0 .665-.058.933-.173.273-.115.484-.275.633-.479.153-.204.228-.439.224-.703a1.176 1.176 0 00-.186-.678 1.296 1.296 0 00-.537-.46 1.762 1.762 0 00-.786-.166c-.324 0-.613.057-.869.172-.252.115-.45.275-.595.48a1.218 1.218 0 00-.223.703h-3.401c.004-.801.224-1.509.658-2.122.439-.614 1.04-1.095 1.803-1.445.763-.35 1.639-.524 2.627-.524.968 0 1.822.164 2.563.492.746.328 1.328.78 1.745 1.355.422.571.631 1.225.627 1.963.008.733-.243 1.334-.754 1.802-.508.47-1.151.746-1.931.831v.103c1.057.115 1.852.439 2.384.971.533.529.795 1.193.787 1.994a3.182 3.182 0 01-.691 2.04c-.46.592-1.101 1.056-1.924 1.393-.818.337-1.762.505-2.831.505zm12.734.179c-1.189-.004-2.216-.28-3.081-.825-.865-.545-1.532-1.331-2.001-2.358-.468-1.027-.701-2.259-.696-3.695.004-1.44.238-2.663.703-3.669.469-1.006 1.133-1.77 1.994-2.295.865-.524 1.892-.786 3.081-.786s2.216.264 3.081.793c.865.524 1.532 1.289 2.001 2.294.469 1.006.701 2.227.697 3.663 0 1.445-.235 2.68-.704 3.707-.468 1.027-1.135 1.814-2 2.36-.861.54-1.886.81-3.075.81zm0-2.89c.614 0 1.117-.319 1.509-.958.396-.644.592-1.654.588-3.03 0-.899-.09-1.634-.269-2.205-.179-.571-.426-.993-.741-1.266a1.6 1.6 0 00-1.087-.415c-.613 0-1.114.31-1.502.933-.388.622-.586 1.607-.594 2.953-.005.916.083 1.67.262 2.263.179.588.426 1.023.741 1.304.32.281.684.422 1.093.422z" />
</svg>