<svg xmlns="http://www.w3.org/2000/svg" width="24" height="24" fill="none" viewBox="0 0 24 24">
  <path fill="currentColor"
    d="M19.496 3H4.47C3.12 3 2 4.121 2 5.504v12.522c0 1.384 1.121 2.505 2.47 2.505h15.026A2.504 2.504 0 0 0 22 18.026V5.504A2.483 2.483 0 0 0 19.496 3ZM6.348 5.504c1.037 0 1.878.841 1.878 1.879A1.856 1.856 0 0 1 6.348 9.26 1.856 1.856 0 0 1 4.47 7.383c0-1.038.875-1.879 1.878-1.879Zm13.109 12.194a.625.625 0 0 1-.552.328H5.21a.626.626 0 0 1-.506-.995l2.739-3.756a.627.627 0 0 1 1.011 0l1.27 1.742 3.651-5.444a.592.592 0 0 1 .521-.312c.208 0 .405.105.521.279l5.009 7.513c.129.19.14.437.03.645Z" />
</svg>